# MagicaVoxel @ Ephtracy

# group
o leg_l

# material
mtllib character_human-5-leg_l.mtl
usemtl palette

# normals
vn -1 0 0
vn 1 0 0
vn 0 0 1
vn 0 0 -1
vn 0 -1 0
vn 0 1 0

# texcoords
vt 0.771484 0.5
vt 0.775391 0.5

# verts
v 7.4 0 0.8
v 7.4 0 0.3
v 7.4 0.1 0.8
v 7.4 0.1 0.3
v 7.4 0.2 0.8
v 7.4 0.2 0.3
v 7.5 0 0.9
v 7.5 0 0.8
v 7.5 0 0.3
v 7.5 0 0.2
v 7.5 0.1 0.9
v 7.5 0.1 0.8
v 7.5 0.1 0.3
v 7.5 0.1 0.2
v 7.5 0.2 0.9
v 7.5 0.2 0.8
v 7.5 0.2 0.3
v 7.5 0.2 0.2
v 7.5 0.3 0.8
v 7.5 0.3 0.3
v 7.8 0 0.9
v 7.8 0 0.8
v 7.8 0 0.3
v 7.8 0 0.2
v 7.8 0.1 0.9
v 7.8 0.1 0.8
v 7.8 0.1 0.3
v 7.8 0.1 0.2
v 7.8 0.2 0.9
v 7.8 0.2 0.8
v 7.8 0.2 0.3
v 7.8 0.2 0.2
v 7.8 0.3 0.8
v 7.8 0.3 0.3
v 7.9 0 0.8
v 7.9 0 0.3
v 7.9 0.1 0.8
v 7.9 0.1 0.3
v 7.9 0.2 0.8
v 7.9 0.2 0.3
v 7.5 0 0.9
v 7.5 0.1 0.9
v 7.5 0.2 0.9
v 7.8 0 0.9
v 7.8 0.1 0.9
v 7.8 0.2 0.9
v 7.4 0 0.8
v 7.4 0.1 0.8
v 7.4 0.2 0.8
v 7.5 0 0.8
v 7.5 0.1 0.8
v 7.5 0.2 0.8
v 7.5 0.3 0.8
v 7.8 0 0.8
v 7.8 0.1 0.8
v 7.8 0.2 0.8
v 7.8 0.3 0.8
v 7.9 0 0.8
v 7.9 0.1 0.8
v 7.9 0.2 0.8
v 7.4 0 0.3
v 7.4 0.1 0.3
v 7.4 0.2 0.3
v 7.5 0 0.3
v 7.5 0.1 0.3
v 7.5 0.2 0.3
v 7.5 0.3 0.3
v 7.8 0 0.3
v 7.8 0.1 0.3
v 7.8 0.2 0.3
v 7.8 0.3 0.3
v 7.9 0 0.3
v 7.9 0.1 0.3
v 7.9 0.2 0.3
v 7.5 0 0.2
v 7.5 0.1 0.2
v 7.5 0.2 0.2
v 7.8 0 0.2
v 7.8 0.1 0.2
v 7.8 0.2 0.2
v 7.5 0 0.9
v 7.8 0 0.9
v 7.4 0 0.8
v 7.5 0 0.8
v 7.8 0 0.8
v 7.9 0 0.8
v 7.4 0 0.3
v 7.5 0 0.3
v 7.8 0 0.3
v 7.9 0 0.3
v 7.5 0 0.2
v 7.8 0 0.2
v 7.5 0.2 0.9
v 7.8 0.2 0.9
v 7.4 0.2 0.8
v 7.5 0.2 0.8
v 7.8 0.2 0.8
v 7.9 0.2 0.8
v 7.4 0.2 0.3
v 7.5 0.2 0.3
v 7.8 0.2 0.3
v 7.9 0.2 0.3
v 7.5 0.2 0.2
v 7.8 0.2 0.2
v 7.5 0.3 0.8
v 7.8 0.3 0.8
v 7.5 0.3 0.3
v 7.8 0.3 0.3

# faces
f 3/1/1 2/1/1 1/1/1
f 4/1/1 2/1/1 3/1/1
f 5/2/1 4/2/1 3/2/1
f 6/2/1 4/2/1 5/2/1
f 11/1/1 8/1/1 7/1/1
f 12/1/1 8/1/1 11/1/1
f 13/1/1 10/1/1 9/1/1
f 14/1/1 10/1/1 13/1/1
f 15/2/1 12/2/1 11/2/1
f 16/2/1 12/2/1 15/2/1
f 17/2/1 14/2/1 13/2/1
f 18/2/1 14/2/1 17/2/1
f 19/2/1 17/2/1 16/2/1
f 20/2/1 17/2/1 19/2/1
f 21/1/2 22/1/2 25/1/2
f 25/1/2 22/1/2 26/1/2
f 23/1/2 24/1/2 27/1/2
f 27/1/2 24/1/2 28/1/2
f 25/2/2 26/2/2 29/2/2
f 29/2/2 26/2/2 30/2/2
f 27/2/2 28/2/2 31/2/2
f 31/2/2 28/2/2 32/2/2
f 30/2/2 31/2/2 33/2/2
f 33/2/2 31/2/2 34/2/2
f 35/1/2 36/1/2 37/1/2
f 37/1/2 36/1/2 38/1/2
f 37/2/2 38/2/2 39/2/2
f 39/2/2 38/2/2 40/2/2
f 44/1/3 42/1/3 41/1/3
f 45/2/3 43/2/3 42/2/3
f 45/1/3 42/1/3 44/1/3
f 46/2/3 43/2/3 45/2/3
f 50/1/3 48/1/3 47/1/3
f 51/2/3 49/2/3 48/2/3
f 51/1/3 48/1/3 50/1/3
f 52/2/3 49/2/3 51/2/3
f 56/2/3 53/2/3 52/2/3
f 57/2/3 53/2/3 56/2/3
f 58/1/3 55/1/3 54/1/3
f 59/2/3 56/2/3 55/2/3
f 59/1/3 55/1/3 58/1/3
f 60/2/3 56/2/3 59/2/3
f 61/1/4 62/1/4 64/1/4
f 62/2/4 63/2/4 65/2/4
f 64/1/4 62/1/4 65/1/4
f 65/2/4 63/2/4 66/2/4
f 66/2/4 67/2/4 70/2/4
f 70/2/4 67/2/4 71/2/4
f 68/1/4 69/1/4 72/1/4
f 69/2/4 70/2/4 73/2/4
f 72/1/4 69/1/4 73/1/4
f 73/2/4 70/2/4 74/2/4
f 75/1/4 76/1/4 78/1/4
f 76/2/4 77/2/4 79/2/4
f 78/1/4 76/1/4 79/1/4
f 79/2/4 77/2/4 80/2/4
f 84/1/5 82/1/5 81/1/5
f 85/1/5 82/1/5 84/1/5
f 87/1/5 84/1/5 83/1/5
f 87/1/5 86/1/5 85/1/5
f 87/1/5 85/1/5 84/1/5
f 88/1/5 86/1/5 87/1/5
f 89/1/5 86/1/5 88/1/5
f 90/1/5 86/1/5 89/1/5
f 91/1/5 89/1/5 88/1/5
f 92/1/5 89/1/5 91/1/5
f 93/2/6 94/2/6 96/2/6
f 96/2/6 94/2/6 97/2/6
f 95/2/6 96/2/6 99/2/6
f 99/2/6 96/2/6 100/2/6
f 97/2/6 98/2/6 101/2/6
f 101/2/6 98/2/6 102/2/6
f 100/2/6 101/2/6 103/2/6
f 103/2/6 101/2/6 104/2/6
f 105/2/6 106/2/6 107/2/6
f 107/2/6 106/2/6 108/2/6
