# MagicaVoxel @ Ephtracy

# group
o head

# material
mtllib character_human-2-head.mtl
usemtl palette

# normals
vn -1 0 0
vn 1 0 0
vn 0 0 1
vn 0 0 -1
vn 0 -1 0
vn 0 1 0

# texcoords
vt 0.134766 0.5
vt 0.822266 0.5
vt 0.826172 0.5
vt 0.888672 0.5
vt 0.912109 0.5
vt 0.978516 0.5
vt 0.994141 0.5

# verts
v 6.7 1.5 0.7
v 6.7 1.5 0.6
v 6.7 1.7 0.7
v 6.7 1.7 0.6
v 6.8 1.4 0.8
v 6.8 1.4 0.6
v 6.8 1.4 0.5
v 6.8 1.5 0.9
v 6.8 1.5 0.8
v 6.8 1.5 0.7
v 6.8 1.5 0.6
v 6.8 1.7 0.8
v 6.8 1.7 0.7
v 6.8 1.7 0.6
v 6.8 1.8 0.9
v 6.8 1.8 0.5
v 6.9 1.3 0.9
v 6.9 1.3 0.6
v 6.9 1.3 0.5
v 6.9 1.4 0.8
v 6.9 1.4 0.6
v 6.9 1.4 0.5
v 6.9 1.4 0.4
v 6.9 1.5 1.1
v 6.9 1.5 1
v 6.9 1.5 0.9
v 6.9 1.5 0.8
v 6.9 1.8 1
v 6.9 1.8 0.9
v 6.9 1.8 0.5
v 6.9 1.8 0.4
v 6.9 1.9 1.1
v 6.9 1.9 1
v 6.9 1.9 0.9
v 6.9 1.9 0.5
v 7 1.2 0.9
v 7 1.2 0.5
v 7 1.2 0.4
v 7 1.3 1
v 7 1.3 0.9
v 7 1.3 0.6
v 7 1.3 0.5
v 7 1.4 1
v 7 1.4 0.9
v 7 1.4 0.5
v 7 1.4 0.4
v 7 1.5 1
v 7 1.5 0.9
v 7 1.8 1
v 7 1.8 0.9
v 7 1.9 1.1
v 7 1.9 1
v 7 1.9 0.9
v 7 2 1.1
v 7 2 1
v 7.1 1.2 1
v 7.1 1.2 0.9
v 7.1 1.2 0.4
v 7.1 1.2 0.3
v 7.1 1.3 1
v 7.1 1.3 0.9
v 7.1 1.8 0.5
v 7.1 1.8 0.4
v 7.1 1.8 0.3
v 7.1 1.9 1
v 7.1 1.9 0.5
v 7.1 1.9 0.4
v 7.1 2 1
v 7.1 2 0.5
v 7.2 1.3 0.3
v 7.2 1.3 0.2
v 7.2 1.8 0.4
v 7.2 1.8 0.3
v 7.2 1.8 0.2
v 7.2 1.9 0.5
v 7.2 1.9 0.4
v 7.2 1.9 0.3
v 7.2 2 1
v 7.2 2 0.5
v 7.2 2 0.4
v 7.2 2.1 1
v 7.2 2.1 0.5
v 7.4 1.8 1.1
v 7.4 1.8 1
v 7.4 2 1.1
v 7.4 2 1
v 7.5 1.7 1.1
v 7.5 1.7 1
v 7.5 1.8 1.1
v 7.5 1.8 1
v 7.6 1.6 1.1
v 7.6 1.6 1
v 7.6 1.7 1.1
v 7.6 1.7 1
v 7.7 1.5 1.1
v 7.7 1.5 1
v 7.7 1.6 1.1
v 7.7 1.6 1
v 7 1.5 1.1
v 7 1.5 1
v 7 1.6 1.1
v 7 1.6 1
v 7.1 1.6 1.1
v 7.1 1.6 1
v 7.1 1.7 1.1
v 7.1 1.7 1
v 7.2 1.7 1.1
v 7.2 1.7 1
v 7.2 1.8 1.1
v 7.2 1.8 1
v 7.3 1.8 1.1
v 7.3 1.8 1
v 7.3 2 1.1
v 7.3 2 1
v 7.5 1.3 0.3
v 7.5 1.3 0.2
v 7.5 1.8 0.4
v 7.5 1.8 0.3
v 7.5 1.8 0.2
v 7.5 1.9 0.5
v 7.5 1.9 0.4
v 7.5 1.9 0.3
v 7.5 2 1
v 7.5 2 0.5
v 7.5 2 0.4
v 7.5 2.1 1
v 7.5 2.1 0.5
v 7.6 1.2 1
v 7.6 1.2 0.9
v 7.6 1.2 0.4
v 7.6 1.2 0.3
v 7.6 1.3 1
v 7.6 1.3 0.9
v 7.6 1.8 0.5
v 7.6 1.8 0.4
v 7.6 1.8 0.3
v 7.6 1.9 1
v 7.6 1.9 0.5
v 7.6 1.9 0.4
v 7.6 2 1
v 7.6 2 0.5
v 7.7 1.2 0.9
v 7.7 1.2 0.5
v 7.7 1.2 0.4
v 7.7 1.3 1
v 7.7 1.3 0.9
v 7.7 1.3 0.6
v 7.7 1.3 0.5
v 7.7 1.3 0.4
v 7.7 1.5 1
v 7.7 1.5 0.9
v 7.7 1.8 1
v 7.7 1.8 0.9
v 7.7 1.9 1.1
v 7.7 1.9 1
v 7.7 1.9 0.9
v 7.7 2 1.1
v 7.7 2 1
v 7.8 1.3 0.9
v 7.8 1.3 0.6
v 7.8 1.3 0.4
v 7.8 1.4 0.8
v 7.8 1.4 0.6
v 7.8 1.4 0.5
v 7.8 1.5 1.1
v 7.8 1.5 1
v 7.8 1.5 0.9
v 7.8 1.5 0.8
v 7.8 1.8 1
v 7.8 1.8 0.9
v 7.8 1.8 0.5
v 7.8 1.8 0.4
v 7.8 1.9 1.1
v 7.8 1.9 1
v 7.8 1.9 0.9
v 7.8 1.9 0.5
v 7.9 1.4 0.8
v 7.9 1.4 0.6
v 7.9 1.4 0.5
v 7.9 1.5 0.9
v 7.9 1.5 0.8
v 7.9 1.5 0.7
v 7.9 1.5 0.6
v 7.9 1.7 0.8
v 7.9 1.7 0.7
v 7.9 1.7 0.6
v 7.9 1.8 0.9
v 7.9 1.8 0.5
v 8 1.5 0.7
v 8 1.5 0.6
v 8 1.7 0.7
v 8 1.7 0.6
v 6.9 1.5 1.1
v 6.9 1.9 1.1
v 7 1.5 1.1
v 7 1.6 1.1
v 7 1.9 1.1
v 7 2 1.1
v 7.1 1.6 1.1
v 7.1 1.7 1.1
v 7.2 1.7 1.1
v 7.2 1.8 1.1
v 7.3 1.8 1.1
v 7.3 2 1.1
v 7.4 1.8 1.1
v 7.4 2 1.1
v 7.5 1.7 1.1
v 7.5 1.8 1.1
v 7.6 1.6 1.1
v 7.6 1.7 1.1
v 7.7 1.5 1.1
v 7.7 1.6 1.1
v 7.7 1.9 1.1
v 7.7 2 1.1
v 7.8 1.5 1.1
v 7.8 1.9 1.1
v 7 1.3 1
v 7 1.4 1
v 7 1.5 1
v 7 1.6 1
v 7.1 1.2 1
v 7.1 1.3 1
v 7.1 1.4 1
v 7.1 1.5 1
v 7.1 1.6 1
v 7.1 1.7 1
v 7.2 1.4 1
v 7.2 1.6 1
v 7.2 1.7 1
v 7.2 1.8 1
v 7.2 2 1
v 7.2 2.1 1
v 7.3 1.8 1
v 7.3 2 1
v 7.4 1.8 1
v 7.4 2 1
v 7.5 1.4 1
v 7.5 1.6 1
v 7.5 1.7 1
v 7.5 1.8 1
v 7.5 2 1
v 7.5 2.1 1
v 7.6 1.2 1
v 7.6 1.3 1
v 7.6 1.4 1
v 7.6 1.5 1
v 7.6 1.6 1
v 7.6 1.7 1
v 7.7 1.3 1
v 7.7 1.5 1
v 7.7 1.6 1
v 6.8 1.5 0.9
v 6.8 1.8 0.9
v 6.9 1.3 0.9
v 6.9 1.5 0.9
v 6.9 1.8 0.9
v 6.9 1.9 0.9
v 7 1.2 0.9
v 7 1.3 0.9
v 7 1.4 0.9
v 7 1.5 0.9
v 7 1.8 0.9
v 7 1.9 0.9
v 7.1 1.2 0.9
v 7.1 1.3 0.9
v 7.6 1.2 0.9
v 7.6 1.3 0.9
v 7.7 1.2 0.9
v 7.7 1.3 0.9
v 7.7 1.5 0.9
v 7.7 1.8 0.9
v 7.7 1.9 0.9
v 7.8 1.3 0.9
v 7.8 1.5 0.9
v 7.8 1.8 0.9
v 7.8 1.9 0.9
v 7.9 1.5 0.9
v 7.9 1.8 0.9
v 6.8 1.4 0.8
v 6.8 1.5 0.8
v 6.9 1.4 0.8
v 6.9 1.5 0.8
v 7.8 1.4 0.8
v 7.8 1.5 0.8
v 7.9 1.4 0.8
v 7.9 1.5 0.8
v 6.7 1.5 0.7
v 6.7 1.7 0.7
v 6.8 1.5 0.7
v 6.8 1.7 0.7
v 7.9 1.5 0.7
v 7.9 1.7 0.7
v 8 1.5 0.7
v 8 1.7 0.7
v 6.9 1.8 1
v 6.9 1.9 1
v 7 1.8 1
v 7 1.9 1
v 7 2 1
v 7.1 1.9 1
v 7.1 2 1
v 7.6 1.9 1
v 7.6 2 1
v 7.7 1.8 1
v 7.7 1.9 1
v 7.7 2 1
v 7.8 1.8 1
v 7.8 1.9 1
v 6.7 1.5 0.6
v 6.7 1.7 0.6
v 6.8 1.5 0.6
v 6.8 1.7 0.6
v 7.9 1.5 0.6
v 7.9 1.7 0.6
v 8 1.5 0.6
v 8 1.7 0.6
v 6.8 1.4 0.5
v 6.8 1.8 0.5
v 6.9 1.3 0.5
v 6.9 1.4 0.5
v 6.9 1.8 0.5
v 6.9 1.9 0.5
v 7 1.3 0.5
v 7 1.4 0.5
v 7.1 1.8 0.5
v 7.1 1.9 0.5
v 7.1 2 0.5
v 7.2 1.9 0.5
v 7.2 2 0.5
v 7.2 2.1 0.5
v 7.5 1.9 0.5
v 7.5 2 0.5
v 7.5 2.1 0.5
v 7.6 1.8 0.5
v 7.6 1.9 0.5
v 7.6 2 0.5
v 7.8 1.4 0.5
v 7.8 1.8 0.5
v 7.8 1.9 0.5
v 7.9 1.4 0.5
v 7.9 1.8 0.5
v 6.9 1.4 0.4
v 6.9 1.8 0.4
v 7 1.2 0.4
v 7 1.4 0.4
v 7.1 1.2 0.4
v 7.1 1.8 0.4
v 7.1 1.9 0.4
v 7.2 1.8 0.4
v 7.2 1.9 0.4
v 7.2 2 0.4
v 7.5 1.8 0.4
v 7.5 1.9 0.4
v 7.5 2 0.4
v 7.6 1.2 0.4
v 7.6 1.8 0.4
v 7.6 1.9 0.4
v 7.7 1.2 0.4
v 7.7 1.3 0.4
v 7.8 1.3 0.4
v 7.8 1.8 0.4
v 7.1 1.2 0.3
v 7.1 1.8 0.3
v 7.2 1.3 0.3
v 7.2 1.8 0.3
v 7.2 1.9 0.3
v 7.5 1.3 0.3
v 7.5 1.8 0.3
v 7.5 1.9 0.3
v 7.6 1.2 0.3
v 7.6 1.8 0.3
v 7.2 1.3 0.2
v 7.2 1.8 0.2
v 7.5 1.3 0.2
v 7.5 1.8 0.2
v 7.1 1.2 1
v 7.6 1.2 1
v 7 1.2 0.9
v 7.1 1.2 0.9
v 7.6 1.2 0.9
v 7.7 1.2 0.9
v 7 1.2 0.5
v 7.1 1.2 0.5
v 7.6 1.2 0.5
v 7.7 1.2 0.5
v 7 1.2 0.4
v 7.1 1.2 0.4
v 7.6 1.2 0.4
v 7.7 1.2 0.4
v 7.1 1.2 0.3
v 7.6 1.2 0.3
v 7 1.3 1
v 7.1 1.3 1
v 7.6 1.3 1
v 7.7 1.3 1
v 6.9 1.3 0.9
v 7 1.3 0.9
v 7.1 1.3 0.9
v 7.6 1.3 0.9
v 7.7 1.3 0.9
v 7.8 1.3 0.9
v 6.9 1.3 0.6
v 7 1.3 0.6
v 7.7 1.3 0.6
v 7.8 1.3 0.6
v 6.9 1.3 0.5
v 7 1.3 0.5
v 7.7 1.3 0.5
v 7.7 1.3 0.4
v 7.8 1.3 0.4
v 7.2 1.3 0.3
v 7.5 1.3 0.3
v 7.2 1.3 0.2
v 7.5 1.3 0.2
v 6.8 1.4 0.8
v 6.9 1.4 0.8
v 7.8 1.4 0.8
v 7.9 1.4 0.8
v 6.8 1.4 0.6
v 6.9 1.4 0.6
v 7.8 1.4 0.6
v 7.9 1.4 0.6
v 6.8 1.4 0.5
v 6.9 1.4 0.5
v 7 1.4 0.5
v 7.8 1.4 0.5
v 7.9 1.4 0.5
v 6.9 1.4 0.4
v 7 1.4 0.4
v 6.9 1.5 1.1
v 7 1.5 1.1
v 7.7 1.5 1.1
v 7.8 1.5 1.1
v 6.9 1.5 1
v 7 1.5 1
v 7.7 1.5 1
v 7.8 1.5 1
v 6.8 1.5 0.9
v 6.9 1.5 0.9
v 7 1.5 0.9
v 7.7 1.5 0.9
v 7.8 1.5 0.9
v 7.9 1.5 0.9
v 6.8 1.5 0.8
v 6.9 1.5 0.8
v 7.8 1.5 0.8
v 7.9 1.5 0.8
v 6.7 1.5 0.7
v 6.8 1.5 0.7
v 7.9 1.5 0.7
v 8 1.5 0.7
v 6.7 1.5 0.6
v 6.8 1.5 0.6
v 7.9 1.5 0.6
v 8 1.5 0.6
v 7 1.6 1.1
v 7.1 1.6 1.1
v 7.6 1.6 1.1
v 7.7 1.6 1.1
v 7 1.6 1
v 7.1 1.6 1
v 7.6 1.6 1
v 7.7 1.6 1
v 7.1 1.7 1.1
v 7.2 1.7 1.1
v 7.5 1.7 1.1
v 7.6 1.7 1.1
v 7.1 1.7 1
v 7.2 1.7 1
v 7.5 1.7 1
v 7.6 1.7 1
v 7.2 1.8 1.1
v 7.3 1.8 1.1
v 7.4 1.8 1.1
v 7.5 1.8 1.1
v 7.2 1.8 1
v 7.3 1.8 1
v 7.4 1.8 1
v 7.5 1.8 1
v 6.7 1.7 0.7
v 6.8 1.7 0.7
v 7.9 1.7 0.7
v 8 1.7 0.7
v 6.7 1.7 0.6
v 6.8 1.7 0.6
v 7.9 1.7 0.6
v 8 1.7 0.6
v 6.9 1.8 1
v 7 1.8 1
v 7.7 1.8 1
v 7.8 1.8 1
v 6.8 1.8 0.9
v 6.9 1.8 0.9
v 7 1.8 0.9
v 7.7 1.8 0.9
v 7.8 1.8 0.9
v 7.9 1.8 0.9
v 6.8 1.8 0.5
v 6.9 1.8 0.5
v 7.1 1.8 0.5
v 7.6 1.8 0.5
v 7.8 1.8 0.5
v 7.9 1.8 0.5
v 6.9 1.8 0.4
v 7.1 1.8 0.4
v 7.2 1.8 0.4
v 7.5 1.8 0.4
v 7.6 1.8 0.4
v 7.8 1.8 0.4
v 7.1 1.8 0.3
v 7.2 1.8 0.3
v 7.5 1.8 0.3
v 7.6 1.8 0.3
v 7.2 1.8 0.2
v 7.5 1.8 0.2
v 6.9 1.9 1.1
v 7 1.9 1.1
v 7.7 1.9 1.1
v 7.8 1.9 1.1
v 6.9 1.9 1
v 7 1.9 1
v 7.1 1.9 1
v 7.6 1.9 1
v 7.7 1.9 1
v 7.8 1.9 1
v 6.9 1.9 0.9
v 7 1.9 0.9
v 7.7 1.9 0.9
v 7.8 1.9 0.9
v 6.9 1.9 0.5
v 7.1 1.9 0.5
v 7.2 1.9 0.5
v 7.5 1.9 0.5
v 7.6 1.9 0.5
v 7.8 1.9 0.5
v 7.1 1.9 0.4
v 7.2 1.9 0.4
v 7.5 1.9 0.4
v 7.6 1.9 0.4
v 7.2 1.9 0.3
v 7.5 1.9 0.3
v 7 2 1.1
v 7.3 2 1.1
v 7.4 2 1.1
v 7.7 2 1.1
v 7 2 1
v 7.1 2 1
v 7.2 2 1
v 7.3 2 1
v 7.4 2 1
v 7.5 2 1
v 7.6 2 1
v 7.7 2 1
v 7.1 2 0.5
v 7.2 2 0.5
v 7.5 2 0.5
v 7.6 2 0.5
v 7.2 2 0.4
v 7.5 2 0.4
v 7.2 2.1 1
v 7.5 2.1 1
v 7.2 2.1 0.5
v 7.5 2.1 0.5

# faces
f 3/1/1 2/1/1 1/1/1
f 4/1/1 2/1/1 3/1/1
f 9/1/1 6/1/1 5/1/1
f 10/1/1 6/1/1 9/1/1
f 11/5/1 7/5/1 6/5/1
f 11/1/1 6/1/1 10/1/1
f 12/1/1 10/1/1 9/1/1
f 12/5/1 9/5/1 8/5/1
f 13/1/1 10/1/1 12/1/1
f 14/5/1 7/5/1 11/5/1
f 15/5/1 13/5/1 12/5/1
f 15/5/1 14/5/1 13/5/1
f 15/5/1 12/5/1 8/5/1
f 16/5/1 7/5/1 14/5/1
f 16/5/1 14/5/1 15/5/1
f 20/1/1 18/1/1 17/1/1
f 21/5/1 19/5/1 18/5/1
f 21/1/1 18/1/1 20/1/1
f 22/5/1 19/5/1 21/5/1
f 26/1/1 20/1/1 17/1/1
f 27/1/1 20/1/1 26/1/1
f 28/6/1 25/6/1 24/6/1
f 28/5/1 26/5/1 25/5/1
f 29/5/1 26/5/1 28/5/1
f 30/5/1 23/5/1 22/5/1
f 31/5/1 23/5/1 30/5/1
f 32/6/1 28/6/1 24/6/1
f 33/6/1 28/6/1 32/6/1
f 34/5/1 30/5/1 29/5/1
f 35/5/1 30/5/1 34/5/1
f 40/1/1 37/1/1 36/1/1
f 41/1/1 37/1/1 40/1/1
f 42/5/1 38/5/1 37/5/1
f 42/1/1 37/1/1 41/1/1
f 43/1/1 40/1/1 39/1/1
f 44/1/1 40/1/1 43/1/1
f 45/5/1 38/5/1 42/5/1
f 46/5/1 38/5/1 45/5/1
f 47/3/1 44/3/1 43/3/1
f 48/3/1 44/3/1 47/3/1
f 52/5/1 50/5/1 49/5/1
f 53/5/1 50/5/1 52/5/1
f 54/6/1 52/6/1 51/6/1
f 55/6/1 52/6/1 54/6/1
f 60/1/1 57/1/1 56/1/1
f 61/1/1 57/1/1 60/1/1
f 63/5/1 59/5/1 58/5/1
f 64/5/1 59/5/1 63/5/1
f 66/5/1 63/5/1 62/5/1
f 67/5/1 63/5/1 66/5/1
f 68/5/1 66/5/1 65/5/1
f 69/5/1 66/5/1 68/5/1
f 73/5/1 71/5/1 70/5/1
f 74/5/1 71/5/1 73/5/1
f 76/5/1 73/5/1 72/5/1
f 77/5/1 73/5/1 76/5/1
f 79/5/1 76/5/1 75/5/1
f 80/5/1 76/5/1 79/5/1
f 81/5/1 79/5/1 78/5/1
f 82/5/1 79/5/1 81/5/1
f 85/6/1 84/6/1 83/6/1
f 86/6/1 84/6/1 85/6/1
f 89/6/1 88/6/1 87/6/1
f 90/6/1 88/6/1 89/6/1
f 93/6/1 92/6/1 91/6/1
f 94/6/1 92/6/1 93/6/1
f 97/6/1 96/6/1 95/6/1
f 98/6/1 96/6/1 97/6/1
f 99/6/2 100/6/2 101/6/2
f 101/6/2 100/6/2 102/6/2
f 103/6/2 104/6/2 105/6/2
f 105/6/2 104/6/2 106/6/2
f 107/6/2 108/6/2 109/6/2
f 109/6/2 108/6/2 110/6/2
f 111/6/2 112/6/2 113/6/2
f 113/6/2 112/6/2 114/6/2
f 115/5/2 116/5/2 118/5/2
f 118/5/2 116/5/2 119/5/2
f 117/5/2 118/5/2 121/5/2
f 121/5/2 118/5/2 122/5/2
f 120/5/2 121/5/2 124/5/2
f 124/5/2 121/5/2 125/5/2
f 123/5/2 124/5/2 126/5/2
f 126/5/2 124/5/2 127/5/2
f 128/1/2 129/1/2 132/1/2
f 132/1/2 129/1/2 133/1/2
f 130/5/2 131/5/2 135/5/2
f 135/5/2 131/5/2 136/5/2
f 134/5/2 135/5/2 138/5/2
f 138/5/2 135/5/2 139/5/2
f 137/5/2 138/5/2 140/5/2
f 140/5/2 138/5/2 141/5/2
f 142/1/2 143/1/2 146/1/2
f 146/1/2 143/1/2 147/1/2
f 143/5/2 144/5/2 148/5/2
f 147/1/2 143/1/2 148/1/2
f 148/5/2 144/5/2 149/5/2
f 145/1/2 146/1/2 150/1/2
f 150/1/2 146/1/2 151/1/2
f 152/5/2 153/5/2 155/5/2
f 155/5/2 153/5/2 156/5/2
f 154/6/2 155/6/2 157/6/2
f 157/6/2 155/6/2 158/6/2
f 159/1/2 160/1/2 162/1/2
f 160/5/2 161/5/2 163/5/2
f 162/1/2 160/1/2 163/1/2
f 163/5/2 161/5/2 164/5/2
f 159/1/2 162/1/2 167/1/2
f 167/1/2 162/1/2 168/1/2
f 165/6/2 166/6/2 169/6/2
f 166/5/2 167/5/2 169/5/2
f 169/5/2 167/5/2 170/5/2
f 164/5/2 161/5/2 171/5/2
f 171/5/2 161/5/2 172/5/2
f 165/6/2 169/6/2 173/6/2
f 173/6/2 169/6/2 174/6/2
f 170/5/2 171/5/2 175/5/2
f 175/5/2 171/5/2 176/5/2
f 177/1/2 178/1/2 181/1/2
f 181/1/2 178/1/2 182/1/2
f 178/5/2 179/5/2 183/5/2
f 182/1/2 178/1/2 183/1/2
f 181/1/2 182/1/2 184/1/2
f 180/5/2 181/5/2 184/5/2
f 184/1/2 182/1/2 185/1/2
f 183/5/2 179/5/2 186/5/2
f 184/5/2 185/5/2 187/5/2
f 185/5/2 186/5/2 187/5/2
f 180/5/2 184/5/2 187/5/2
f 186/5/2 179/5/2 188/5/2
f 187/5/2 186/5/2 188/5/2
f 189/1/2 190/1/2 191/1/2
f 191/1/2 190/1/2 192/1/2
f 195/6/3 194/6/3 193/6/3
f 196/6/3 194/6/3 195/6/3
f 197/6/3 194/6/3 196/6/3
f 199/6/3 198/6/3 197/6/3
f 199/6/3 197/6/3 196/6/3
f 200/6/3 198/6/3 199/6/3
f 201/6/3 198/6/3 200/6/3
f 202/6/3 198/6/3 201/6/3
f 203/6/3 198/6/3 202/6/3
f 204/6/3 198/6/3 203/6/3
f 208/6/3 206/6/3 205/6/3
f 210/6/3 208/6/3 207/6/3
f 212/6/3 210/6/3 209/6/3
f 213/6/3 206/6/3 208/6/3
f 213/6/3 208/6/3 210/6/3
f 213/6/3 210/6/3 212/6/3
f 214/6/3 206/6/3 213/6/3
f 215/6/3 212/6/3 211/6/3
f 215/6/3 213/6/3 212/6/3
f 216/6/3 213/6/3 215/6/3
f 222/1/3 218/1/3 217/1/3
f 223/3/3 219/3/3 218/3/3
f 223/1/3 218/1/3 222/1/3
f 224/2/3 220/2/3 219/2/3
f 224/3/3 219/3/3 223/3/3
f 225/2/3 220/2/3 224/2/3
f 227/1/3 223/1/3 222/1/3
f 227/1/3 222/1/3 221/1/3
f 227/4/3 225/4/3 224/4/3
f 227/4/3 224/4/3 223/4/3
f 228/7/3 226/7/3 225/7/3
f 228/4/3 225/4/3 227/4/3
f 229/7/3 226/7/3 228/7/3
f 233/1/3 228/1/3 227/1/3
f 233/1/3 229/1/3 228/1/3
f 233/1/3 230/1/3 229/1/3
f 234/5/3 232/5/3 231/5/3
f 235/1/3 233/1/3 227/1/3
f 235/5/3 234/5/3 233/5/3
f 236/5/3 232/5/3 234/5/3
f 236/5/3 234/5/3 235/5/3
f 237/1/3 227/1/3 221/1/3
f 237/1/3 235/1/3 227/1/3
f 238/1/3 235/1/3 237/1/3
f 239/1/3 235/1/3 238/1/3
f 240/1/3 235/1/3 239/1/3
f 241/5/3 232/5/3 236/5/3
f 242/5/3 232/5/3 241/5/3
f 243/1/3 237/1/3 221/1/3
f 244/1/3 237/1/3 243/1/3
f 245/4/3 238/4/3 237/4/3
f 245/1/3 237/1/3 244/1/3
f 246/4/3 238/4/3 245/4/3
f 247/7/3 239/7/3 238/7/3
f 247/4/3 238/4/3 246/4/3
f 248/7/3 239/7/3 247/7/3
f 249/1/3 246/1/3 245/1/3
f 249/1/3 245/1/3 244/1/3
f 250/2/3 247/2/3 246/2/3
f 250/1/3 246/1/3 249/1/3
f 251/2/3 247/2/3 250/2/3
f 255/5/3 253/5/3 252/5/3
f 256/5/3 253/5/3 255/5/3
f 259/1/3 255/1/3 254/1/3
f 260/1/3 255/1/3 259/1/3
f 261/1/3 255/1/3 260/1/3
f 262/5/3 257/5/3 256/5/3
f 263/5/3 257/5/3 262/5/3
f 264/1/3 259/1/3 258/1/3
f 265/1/3 259/1/3 264/1/3
f 268/1/3 267/1/3 266/1/3
f 269/1/3 267/1/3 268/1/3
f 273/1/3 270/1/3 269/1/3
f 274/1/3 270/1/3 273/1/3
f 275/5/3 272/5/3 271/5/3
f 276/5/3 272/5/3 275/5/3
f 277/5/3 275/5/3 274/5/3
f 278/5/3 275/5/3 277/5/3
f 281/1/3 280/1/3 279/1/3
f 282/1/3 280/1/3 281/1/3
f 285/1/3 284/1/3 283/1/3
f 286/1/3 284/1/3 285/1/3
f 289/1/3 288/1/3 287/1/3
f 290/1/3 288/1/3 289/1/3
f 293/1/3 292/1/3 291/1/3
f 294/1/3 292/1/3 293/1/3
f 295/6/4 296/6/4 297/6/4
f 297/6/4 296/6/4 298/6/4
f 298/6/4 299/6/4 300/6/4
f 300/6/4 299/6/4 301/6/4
f 302/6/4 303/6/4 305/6/4
f 305/6/4 303/6/4 306/6/4
f 304/6/4 305/6/4 307/6/4
f 307/6/4 305/6/4 308/6/4
f 309/1/4 310/1/4 311/1/4
f 311/1/4 310/1/4 312/1/4
f 313/1/4 314/1/4 315/1/4
f 315/1/4 314/1/4 316/1/4
f 317/5/4 318/5/4 320/5/4
f 320/5/4 318/5/4 321/5/4
f 319/5/4 320/5/4 323/5/4
f 323/5/4 320/5/4 324/5/4
f 321/5/4 322/5/4 325/5/4
f 325/5/4 322/5/4 326/5/4
f 326/5/4 327/5/4 328/5/4
f 328/5/4 327/5/4 329/5/4
f 329/5/4 330/5/4 332/5/4
f 332/5/4 330/5/4 333/5/4
f 331/5/4 332/5/4 335/5/4
f 335/5/4 332/5/4 336/5/4
f 334/5/4 335/5/4 338/5/4
f 338/5/4 335/5/4 339/5/4
f 337/5/4 338/5/4 340/5/4
f 340/5/4 338/5/4 341/5/4
f 342/5/4 343/5/4 345/5/4
f 344/5/4 345/5/4 346/5/4
f 345/5/4 343/5/4 347/5/4
f 346/5/4 345/5/4 347/5/4
f 347/5/4 348/5/4 349/5/4
f 349/5/4 348/5/4 350/5/4
f 350/5/4 351/5/4 353/5/4
f 353/5/4 351/5/4 354/5/4
f 352/5/4 353/5/4 356/5/4
f 356/5/4 353/5/4 357/5/4
f 355/5/4 356/5/4 358/5/4
f 358/5/4 356/5/4 359/5/4
f 359/5/4 356/5/4 360/5/4
f 360/5/4 356/5/4 361/5/4
f 362/5/4 363/5/4 364/5/4
f 364/5/4 363/5/4 365/5/4
f 362/5/4 364/5/4 367/5/4
f 365/5/4 366/5/4 368/5/4
f 368/5/4 366/5/4 369/5/4
f 362/5/4 367/5/4 370/5/4
f 367/5/4 368/5/4 370/5/4
f 370/5/4 368/5/4 371/5/4
f 372/5/4 373/5/4 374/5/4
f 374/5/4 373/5/4 375/5/4
f 379/1/5 377/1/5 376/1/5
f 380/1/5 377/1/5 379/1/5
f 382/1/5 379/1/5 378/1/5
f 382/1/5 381/1/5 380/1/5
f 382/1/5 380/1/5 379/1/5
f 383/1/5 381/1/5 382/1/5
f 384/1/5 381/1/5 383/1/5
f 385/1/5 381/1/5 384/1/5
f 386/5/5 383/5/5 382/5/5
f 387/1/5 384/1/5 383/1/5
f 387/5/5 383/5/5 386/5/5
f 388/5/5 385/5/5 384/5/5
f 388/1/5 384/1/5 387/1/5
f 389/5/5 385/5/5 388/5/5
f 390/5/5 388/5/5 387/5/5
f 391/5/5 388/5/5 390/5/5
f 397/1/5 393/1/5 392/1/5
f 398/1/5 393/1/5 397/1/5
f 399/1/5 395/1/5 394/1/5
f 400/1/5 395/1/5 399/1/5
f 402/1/5 397/1/5 396/1/5
f 403/1/5 397/1/5 402/1/5
f 404/1/5 401/1/5 400/1/5
f 405/1/5 401/1/5 404/1/5
f 406/5/5 403/5/5 402/5/5
f 407/5/5 403/5/5 406/5/5
f 408/5/5 405/5/5 404/5/5
f 409/5/5 405/5/5 408/5/5
f 410/5/5 405/5/5 409/5/5
f 413/5/5 412/5/5 411/5/5
f 414/5/5 412/5/5 413/5/5
f 419/1/5 416/1/5 415/1/5
f 420/1/5 416/1/5 419/1/5
f 421/1/5 418/1/5 417/1/5
f 422/1/5 418/1/5 421/1/5
f 423/5/5 420/5/5 419/5/5
f 424/5/5 420/5/5 423/5/5
f 426/5/5 422/5/5 421/5/5
f 427/5/5 422/5/5 426/5/5
f 428/5/5 425/5/5 424/5/5
f 429/5/5 425/5/5 428/5/5
f 434/6/5 431/6/5 430/6/5
f 435/6/5 431/6/5 434/6/5
f 436/6/5 433/6/5 432/6/5
f 437/6/5 433/6/5 436/6/5
f 439/5/5 435/5/5 434/5/5
f 440/5/5 435/5/5 439/5/5
f 441/5/5 437/5/5 436/5/5
f 442/5/5 437/5/5 441/5/5
f 444/5/5 439/5/5 438/5/5
f 445/5/5 439/5/5 444/5/5
f 446/5/5 443/5/5 442/5/5
f 447/5/5 443/5/5 446/5/5
f 452/1/5 449/1/5 448/1/5
f 453/1/5 449/1/5 452/1/5
f 454/1/5 451/1/5 450/1/5
f 455/1/5 451/1/5 454/1/5
f 460/6/5 457/6/5 456/6/5
f 461/6/5 457/6/5 460/6/5
f 462/6/5 459/6/5 458/6/5
f 463/6/5 459/6/5 462/6/5
f 468/6/5 465/6/5 464/6/5
f 469/6/5 465/6/5 468/6/5
f 470/6/5 467/6/5 466/6/5
f 471/6/5 467/6/5 470/6/5
f 476/6/5 473/6/5 472/6/5
f 477/6/5 473/6/5 476/6/5
f 478/6/5 475/6/5 474/6/5
f 479/6/5 475/6/5 478/6/5
f 480/1/6 481/1/6 484/1/6
f 484/1/6 481/1/6 485/1/6
f 482/1/6 483/1/6 486/1/6
f 486/1/6 483/1/6 487/1/6
f 488/5/6 489/5/6 493/5/6
f 493/5/6 489/5/6 494/5/6
f 490/5/6 491/5/6 495/5/6
f 495/5/6 491/5/6 496/5/6
f 492/5/6 493/5/6 498/5/6
f 498/5/6 493/5/6 499/5/6
f 496/5/6 497/5/6 502/5/6
f 502/5/6 497/5/6 503/5/6
f 499/5/6 500/5/6 504/5/6
f 504/5/6 500/5/6 505/5/6
f 501/5/6 502/5/6 508/5/6
f 508/5/6 502/5/6 509/5/6
f 505/5/6 506/5/6 510/5/6
f 510/5/6 506/5/6 511/5/6
f 507/5/6 508/5/6 512/5/6
f 512/5/6 508/5/6 513/5/6
f 511/5/6 512/5/6 514/5/6
f 514/5/6 512/5/6 515/5/6
f 516/6/6 517/6/6 520/6/6
f 520/6/6 517/6/6 521/6/6
f 518/6/6 519/6/6 524/6/6
f 524/6/6 519/6/6 525/6/6
f 521/5/6 522/5/6 527/5/6
f 523/5/6 524/5/6 528/5/6
f 526/5/6 527/5/6 530/5/6
f 527/5/6 522/5/6 531/5/6
f 530/5/6 527/5/6 531/5/6
f 528/5/6 529/5/6 534/5/6
f 523/5/6 528/5/6 534/5/6
f 534/5/6 529/5/6 535/5/6
f 531/5/6 532/5/6 536/5/6
f 536/5/6 532/5/6 537/5/6
f 533/5/6 534/5/6 538/5/6
f 538/5/6 534/5/6 539/5/6
f 537/5/6 538/5/6 540/5/6
f 540/5/6 538/5/6 541/5/6
f 542/6/6 543/6/6 546/6/6
f 546/6/6 543/6/6 547/6/6
f 547/6/6 543/6/6 548/6/6
f 548/6/6 543/6/6 549/6/6
f 544/6/6 545/6/6 550/6/6
f 550/6/6 545/6/6 551/6/6
f 551/6/6 545/6/6 552/6/6
f 552/6/6 545/6/6 553/6/6
f 547/5/6 548/5/6 554/5/6
f 554/5/6 548/5/6 555/5/6
f 551/5/6 552/5/6 556/5/6
f 556/5/6 552/5/6 557/5/6
f 555/5/6 556/5/6 558/5/6
f 558/5/6 556/5/6 559/5/6
f 560/5/6 561/5/6 562/5/6
f 562/5/6 561/5/6 563/5/6
