# MagicaVoxel @ Ephtracy

# group
o chest

# material
mtllib character_human-3-chest.mtl
usemtl palette

# normals
vn -1 0 0
vn 1 0 0
vn 0 0 1
vn 0 0 -1
vn 0 -1 0
vn 0 1 0

# texcoords
vt 0.681641 0.5
vt 0.693359 0.5
vt 0.716797 0.5
vt 0.736328 0.5
vt 0.740234 0.5
vt 0.748047 0.5
vt 0.876953 0.5
vt 0.880859 0.5

# verts
v 6.8 1 0.5
v 6.8 1 0.4
v 6.8 1.1 0.7
v 6.8 1.1 0.5
v 6.8 1.1 0.4
v 6.8 1.2 0.7
v 6.8 1.2 0.5
v 6.9 0.3 0.8
v 6.9 0.3 0.4
v 6.9 0.6 0.8
v 6.9 0.6 0.4
v 6.9 0.7 0.8
v 6.9 0.7 0.7
v 6.9 0.7 0.5
v 6.9 0.7 0.4
v 6.9 0.8 0.7
v 6.9 0.8 0.5
v 6.9 0.9 0.7
v 6.9 0.9 0.5
v 6.9 1 0.8
v 6.9 1 0.5
v 6.9 1.1 0.7
v 6.9 1.1 0.5
v 6.9 1.1 0.4
v 6.9 1.2 0.8
v 6.9 1.2 0.7
v 6.9 1.2 0.5
v 6.9 1.2 0.4
v 7 0.3 0.9
v 7 0.3 0.8
v 7 0.3 0.4
v 7 0.3 0.3
v 7 0.6 0.9
v 7 0.6 0.8
v 7 0.6 0.4
v 7 0.6 0.3
v 7 0.7 0.9
v 7 0.7 0.8
v 7 0.7 0.7
v 7 0.7 0.5
v 7 0.7 0.4
v 7 0.7 0.3
v 7 0.8 0.8
v 7 0.8 0.7
v 7 0.8 0.5
v 7 0.8 0.4
v 7 0.9 0.8
v 7 0.9 0.7
v 7 0.9 0.5
v 7 0.9 0.4
v 7 1 0.9
v 7 1 0.8
v 7 1 0.7
v 7 1 0.5
v 7 1 0.4
v 7 1 0.3
v 7 1.2 0.9
v 7 1.2 0.8
v 7 1.2 0.4
v 7 1.2 0.3
v 7.1 0.3 0.3
v 7.1 0.3 0.2
v 7.1 0.6 0.3
v 7.1 0.6 0.2
v 7.1 0.7 0.9
v 7.1 0.7 0.8
v 7.1 0.7 0.4
v 7.1 0.7 0.3
v 7.1 0.7 0.2
v 7.1 0.8 0.9
v 7.1 0.8 0.8
v 7.1 0.8 0.4
v 7.1 0.8 0.3
v 7.1 0.9 0.9
v 7.1 0.9 0.8
v 7.1 0.9 0.7
v 7.1 0.9 0.5
v 7.1 0.9 0.4
v 7.1 0.9 0.3
v 7.1 1 0.8
v 7.1 1 0.7
v 7.1 1 0.5
v 7.1 1 0.4
v 7.1 1 0.3
v 7.1 1 0.2
v 7.1 1.2 0.3
v 7.1 1.2 0.2
v 7.2 0.7 0.3
v 7.2 0.7 0.2
v 7.2 0.8 0.3
v 7.2 0.8 0.2
v 7.2 0.9 0.4
v 7.2 0.9 0.3
v 7.2 0.9 0.2
v 7.2 1 0.4
v 7.2 1 0.3
v 7.5 0.7 0.4
v 7.5 0.7 0.3
v 7.5 0.8 0.4
v 7.5 0.8 0.3
v 7.5 0.9 0.4
v 7.5 0.9 0.3
v 7.6 0.7 0.8
v 7.6 0.7 0.7
v 7.6 0.7 0.5
v 7.6 0.7 0.4
v 7.6 0.8 0.8
v 7.6 0.8 0.7
v 7.6 0.8 0.5
v 7.6 0.8 0.4
v 7.6 0.9 0.8
v 7.6 0.9 0.7
v 7.6 0.9 0.5
v 7.6 0.9 0.4
v 7.7 0.7 0.7
v 7.7 0.7 0.5
v 7.7 0.8 0.7
v 7.7 0.8 0.5
v 7.7 0.9 0.7
v 7.7 0.9 0.5
v 7 0.7 0.7
v 7 0.7 0.5
v 7 0.8 0.7
v 7 0.8 0.5
v 7 0.9 0.7
v 7 0.9 0.5
v 7.1 0.7 0.8
v 7.1 0.7 0.7
v 7.1 0.7 0.5
v 7.1 0.7 0.4
v 7.1 0.8 0.8
v 7.1 0.8 0.7
v 7.1 0.8 0.5
v 7.1 0.8 0.4
v 7.1 0.9 0.8
v 7.1 0.9 0.7
v 7.1 0.9 0.5
v 7.1 0.9 0.4
v 7.2 0.7 0.4
v 7.2 0.7 0.3
v 7.2 0.8 0.4
v 7.2 0.8 0.3
v 7.2 0.9 0.4
v 7.2 0.9 0.3
v 7.5 0.7 0.3
v 7.5 0.7 0.2
v 7.5 0.8 0.3
v 7.5 0.8 0.2
v 7.5 0.9 0.4
v 7.5 0.9 0.3
v 7.5 0.9 0.2
v 7.5 1 0.4
v 7.5 1 0.3
v 7.6 0.3 0.3
v 7.6 0.3 0.2
v 7.6 0.6 0.3
v 7.6 0.6 0.2
v 7.6 0.7 0.9
v 7.6 0.7 0.8
v 7.6 0.7 0.4
v 7.6 0.7 0.3
v 7.6 0.7 0.2
v 7.6 0.8 0.9
v 7.6 0.8 0.8
v 7.6 0.8 0.4
v 7.6 0.8 0.3
v 7.6 0.9 0.9
v 7.6 0.9 0.8
v 7.6 0.9 0.7
v 7.6 0.9 0.5
v 7.6 0.9 0.4
v 7.6 0.9 0.3
v 7.6 1 0.8
v 7.6 1 0.7
v 7.6 1 0.5
v 7.6 1 0.4
v 7.6 1 0.3
v 7.6 1 0.2
v 7.6 1.2 0.3
v 7.6 1.2 0.2
v 7.7 0.3 0.9
v 7.7 0.3 0.8
v 7.7 0.3 0.4
v 7.7 0.3 0.3
v 7.7 0.6 0.9
v 7.7 0.6 0.8
v 7.7 0.6 0.4
v 7.7 0.6 0.3
v 7.7 0.7 0.9
v 7.7 0.7 0.8
v 7.7 0.7 0.7
v 7.7 0.7 0.5
v 7.7 0.7 0.4
v 7.7 0.7 0.3
v 7.7 0.8 0.8
v 7.7 0.8 0.7
v 7.7 0.8 0.5
v 7.7 0.8 0.4
v 7.7 0.9 0.8
v 7.7 0.9 0.7
v 7.7 0.9 0.5
v 7.7 0.9 0.4
v 7.7 1 0.9
v 7.7 1 0.8
v 7.7 1 0.7
v 7.7 1 0.5
v 7.7 1 0.4
v 7.7 1 0.3
v 7.7 1.2 0.9
v 7.7 1.2 0.8
v 7.7 1.2 0.4
v 7.7 1.2 0.3
v 7.8 0.3 0.8
v 7.8 0.3 0.4
v 7.8 0.6 0.8
v 7.8 0.6 0.4
v 7.8 0.7 0.8
v 7.8 0.7 0.7
v 7.8 0.7 0.5
v 7.8 0.7 0.4
v 7.8 0.8 0.7
v 7.8 0.8 0.5
v 7.8 0.9 0.7
v 7.8 0.9 0.5
v 7.8 1 0.8
v 7.8 1 0.6
v 7.8 1.1 0.7
v 7.8 1.1 0.6
v 7.8 1.1 0.5
v 7.8 1.1 0.4
v 7.8 1.2 0.8
v 7.8 1.2 0.7
v 7.8 1.2 0.5
v 7.8 1.2 0.4
v 7.9 1 0.6
v 7.9 1 0.4
v 7.9 1.1 0.7
v 7.9 1.1 0.6
v 7.9 1.1 0.5
v 7.9 1.1 0.4
v 7.9 1.2 0.7
v 7.9 1.2 0.5
v 7 0.3 0.9
v 7 0.6 0.9
v 7 0.7 0.9
v 7 1 0.9
v 7 1.2 0.9
v 7.1 0.7 0.9
v 7.1 0.8 0.9
v 7.1 0.9 0.9
v 7.2 0.7 0.9
v 7.2 0.8 0.9
v 7.2 0.9 0.9
v 7.2 1.1 0.9
v 7.2 1.2 0.9
v 7.3 0.7 0.9
v 7.3 0.9 0.9
v 7.3 1 0.9
v 7.3 1.1 0.9
v 7.4 0.8 0.9
v 7.4 0.9 0.9
v 7.4 1 0.9
v 7.4 1.1 0.9
v 7.5 0.7 0.9
v 7.5 0.8 0.9
v 7.5 0.9 0.9
v 7.5 1.1 0.9
v 7.5 1.2 0.9
v 7.6 0.7 0.9
v 7.6 0.8 0.9
v 7.6 0.9 0.9
v 7.7 0.3 0.9
v 7.7 0.6 0.9
v 7.7 0.7 0.9
v 7.7 1 0.9
v 7.7 1.2 0.9
v 6.9 0.3 0.8
v 6.9 0.6 0.8
v 6.9 0.7 0.8
v 6.9 1 0.8
v 6.9 1.2 0.8
v 7 0.3 0.8
v 7 0.6 0.8
v 7 0.7 0.8
v 7 0.8 0.8
v 7 0.9 0.8
v 7 1 0.8
v 7 1.2 0.8
v 7.1 0.7 0.8
v 7.1 0.8 0.8
v 7.1 0.9 0.8
v 7.1 1 0.8
v 7.2 0.9 0.8
v 7.3 0.9 0.8
v 7.3 1 0.8
v 7.4 0.9 0.8
v 7.4 1 0.8
v 7.5 0.9 0.8
v 7.6 0.7 0.8
v 7.6 0.8 0.8
v 7.6 0.9 0.8
v 7.6 1 0.8
v 7.7 0.3 0.8
v 7.7 0.6 0.8
v 7.7 0.7 0.8
v 7.7 0.8 0.8
v 7.7 0.9 0.8
v 7.7 1 0.8
v 7.7 1.2 0.8
v 7.8 0.3 0.8
v 7.8 0.6 0.8
v 7.8 0.7 0.8
v 7.8 1 0.8
v 7.8 1.2 0.8
v 6.8 1.1 0.7
v 6.8 1.2 0.7
v 6.9 0.7 0.7
v 6.9 0.8 0.7
v 6.9 0.9 0.7
v 6.9 1.1 0.7
v 6.9 1.2 0.7
v 7 0.7 0.7
v 7 0.8 0.7
v 7 0.9 0.7
v 7 1 0.7
v 7.1 0.9 0.7
v 7.1 1 0.7
v 7.6 0.9 0.7
v 7.6 1 0.7
v 7.7 0.7 0.7
v 7.7 0.8 0.7
v 7.7 0.9 0.7
v 7.7 1 0.7
v 7.8 0.7 0.7
v 7.8 0.8 0.7
v 7.8 0.9 0.7
v 7.8 1.1 0.7
v 7.8 1.2 0.7
v 7.9 1.1 0.7
v 7.9 1.2 0.7
v 7.8 1 0.6
v 7.8 1.1 0.6
v 7.9 1 0.6
v 7.9 1.1 0.6
v 6.8 1 0.5
v 6.8 1.1 0.5
v 6.9 1 0.5
v 6.9 1.1 0.5
v 7 0.7 0.5
v 7 0.8 0.5
v 7 0.9 0.5
v 7.1 0.7 0.5
v 7.1 0.8 0.5
v 7.1 0.9 0.5
v 7.6 0.7 0.5
v 7.6 0.8 0.5
v 7.6 0.9 0.5
v 7.7 0.7 0.5
v 7.7 0.8 0.5
v 7.7 0.9 0.5
v 7.1 0.7 0.4
v 7.1 0.8 0.4
v 7.1 0.9 0.4
v 7.2 0.7 0.4
v 7.2 0.8 0.4
v 7.2 0.9 0.4
v 7.5 0.7 0.4
v 7.5 0.8 0.4
v 7.5 0.9 0.4
v 7.6 0.7 0.4
v 7.6 0.8 0.4
v 7.6 0.9 0.4
v 7.2 0.7 0.3
v 7.2 0.8 0.3
v 7.2 0.9 0.3
v 7.5 0.7 0.3
v 7.5 0.8 0.3
v 7.5 0.9 0.3
v 7.1 0.7 0.8
v 7.1 0.8 0.8
v 7.1 0.9 0.8
v 7.2 0.7 0.8
v 7.2 0.8 0.8
v 7.2 0.9 0.8
v 7.3 0.7 0.8
v 7.3 0.9 0.8
v 7.4 0.8 0.8
v 7.4 0.9 0.8
v 7.5 0.7 0.8
v 7.5 0.8 0.8
v 7.5 0.9 0.8
v 7.6 0.7 0.8
v 7.6 0.8 0.8
v 7.6 0.9 0.8
v 7 0.7 0.7
v 7 0.8 0.7
v 7 0.9 0.7
v 7.1 0.7 0.7
v 7.1 0.8 0.7
v 7.1 0.9 0.7
v 7.6 0.7 0.7
v 7.6 0.8 0.7
v 7.6 0.9 0.7
v 7.7 0.7 0.7
v 7.7 0.8 0.7
v 7.7 0.9 0.7
v 6.8 1.1 0.5
v 6.8 1.2 0.5
v 6.9 0.7 0.5
v 6.9 0.8 0.5
v 6.9 0.9 0.5
v 6.9 1.1 0.5
v 6.9 1.2 0.5
v 7 0.7 0.5
v 7 0.8 0.5
v 7 0.9 0.5
v 7 1 0.5
v 7.1 0.9 0.5
v 7.1 1 0.5
v 7.6 0.9 0.5
v 7.6 1 0.5
v 7.7 0.7 0.5
v 7.7 0.8 0.5
v 7.7 0.9 0.5
v 7.7 1 0.5
v 7.8 0.7 0.5
v 7.8 0.8 0.5
v 7.8 0.9 0.5
v 7.8 1.1 0.5
v 7.8 1.2 0.5
v 7.9 1.1 0.5
v 7.9 1.2 0.5
v 6.8 1 0.4
v 6.8 1.1 0.4
v 6.9 0.3 0.4
v 6.9 0.6 0.4
v 6.9 0.7 0.4
v 6.9 1 0.4
v 6.9 1.1 0.4
v 6.9 1.2 0.4
v 7 0.3 0.4
v 7 0.6 0.4
v 7 0.7 0.4
v 7 0.8 0.4
v 7 0.9 0.4
v 7 1 0.4
v 7 1.2 0.4
v 7.1 0.7 0.4
v 7.1 0.8 0.4
v 7.1 0.9 0.4
v 7.1 1 0.4
v 7.2 0.9 0.4
v 7.2 1 0.4
v 7.5 0.9 0.4
v 7.5 1 0.4
v 7.6 0.7 0.4
v 7.6 0.8 0.4
v 7.6 0.9 0.4
v 7.6 1 0.4
v 7.7 0.3 0.4
v 7.7 0.6 0.4
v 7.7 0.7 0.4
v 7.7 0.8 0.4
v 7.7 0.9 0.4
v 7.7 1 0.4
v 7.7 1.2 0.4
v 7.8 0.3 0.4
v 7.8 0.6 0.4
v 7.8 0.7 0.4
v 7.8 1 0.4
v 7.8 1.1 0.4
v 7.8 1.2 0.4
v 7.9 1 0.4
v 7.9 1.1 0.4
v 7 0.3 0.3
v 7 0.6 0.3
v 7 0.7 0.3
v 7 1 0.3
v 7 1.2 0.3
v 7.1 0.3 0.3
v 7.1 0.6 0.3
v 7.1 0.7 0.3
v 7.1 0.8 0.3
v 7.1 0.9 0.3
v 7.1 1 0.3
v 7.1 1.2 0.3
v 7.2 0.7 0.3
v 7.2 0.8 0.3
v 7.2 0.9 0.3
v 7.2 1 0.3
v 7.5 0.7 0.3
v 7.5 0.8 0.3
v 7.5 0.9 0.3
v 7.5 1 0.3
v 7.6 0.3 0.3
v 7.6 0.6 0.3
v 7.6 0.7 0.3
v 7.6 0.8 0.3
v 7.6 0.9 0.3
v 7.6 1 0.3
v 7.6 1.2 0.3
v 7.7 0.3 0.3
v 7.7 0.6 0.3
v 7.7 0.7 0.3
v 7.7 1 0.3
v 7.7 1.2 0.3
v 7.1 0.3 0.2
v 7.1 0.6 0.2
v 7.1 0.7 0.2
v 7.1 1 0.2
v 7.1 1.2 0.2
v 7.2 0.7 0.2
v 7.2 0.8 0.2
v 7.2 0.9 0.2
v 7.5 0.7 0.2
v 7.5 0.8 0.2
v 7.5 0.9 0.2
v 7.6 0.3 0.2
v 7.6 0.6 0.2
v 7.6 0.7 0.2
v 7.6 1 0.2
v 7.6 1.2 0.2
v 7 0.3 0.9
v 7.7 0.3 0.9
v 6.9 0.3 0.8
v 7 0.3 0.8
v 7.7 0.3 0.8
v 7.8 0.3 0.8
v 6.9 0.3 0.4
v 7 0.3 0.4
v 7.7 0.3 0.4
v 7.8 0.3 0.4
v 7 0.3 0.3
v 7.1 0.3 0.3
v 7.6 0.3 0.3
v 7.7 0.3 0.3
v 7.1 0.3 0.2
v 7.6 0.3 0.2
v 7.1 0.9 0.8
v 7.2 0.9 0.8
v 7.3 0.9 0.8
v 7.4 0.9 0.8
v 7.5 0.9 0.8
v 7.6 0.9 0.8
v 7 0.9 0.7
v 7.1 0.9 0.7
v 7.6 0.9 0.7
v 7.7 0.9 0.7
v 7 0.9 0.5
v 7.1 0.9 0.5
v 7.6 0.9 0.5
v 7.7 0.9 0.5
v 7.1 0.9 0.4
v 7.2 0.9 0.4
v 7.5 0.9 0.4
v 7.6 0.9 0.4
v 7.2 0.9 0.3
v 7.5 0.9 0.3
v 7 1 0.9
v 7.3 1 0.9
v 7.4 1 0.9
v 7.7 1 0.9
v 6.9 1 0.8
v 7 1 0.8
v 7.1 1 0.8
v 7.3 1 0.8
v 7.4 1 0.8
v 7.6 1 0.8
v 7.7 1 0.8
v 7.8 1 0.8
v 7 1 0.7
v 7.1 1 0.7
v 7.6 1 0.7
v 7.7 1 0.7
v 7.8 1 0.6
v 7.9 1 0.6
v 6.8 1 0.5
v 6.9 1 0.5
v 7 1 0.5
v 7.1 1 0.5
v 7.6 1 0.5
v 7.7 1 0.5
v 6.8 1 0.4
v 6.9 1 0.4
v 7 1 0.4
v 7.1 1 0.4
v 7.2 1 0.4
v 7.5 1 0.4
v 7.6 1 0.4
v 7.7 1 0.4
v 7.8 1 0.4
v 7.9 1 0.4
v 7 1 0.3
v 7.1 1 0.3
v 7.2 1 0.3
v 7.5 1 0.3
v 7.6 1 0.3
v 7.7 1 0.3
v 7.1 1 0.2
v 7.6 1 0.2
v 6.8 1.1 0.7
v 6.9 1.1 0.7
v 7.8 1.1 0.7
v 7.9 1.1 0.7
v 7.8 1.1 0.6
v 7.9 1.1 0.6
v 6.8 1.1 0.5
v 6.9 1.1 0.5
v 7 0.7 0.9
v 7.1 0.7 0.9
v 7.6 0.7 0.9
v 7.7 0.7 0.9
v 6.9 0.7 0.8
v 7 0.7 0.8
v 7.1 0.7 0.8
v 7.2 0.7 0.8
v 7.3 0.7 0.8
v 7.5 0.7 0.8
v 7.6 0.7 0.8
v 7.7 0.7 0.8
v 7.8 0.7 0.8
v 6.9 0.7 0.7
v 7 0.7 0.7
v 7.1 0.7 0.7
v 7.6 0.7 0.7
v 7.7 0.7 0.7
v 7.8 0.7 0.7
v 6.9 0.7 0.5
v 7 0.7 0.5
v 7.1 0.7 0.5
v 7.6 0.7 0.5
v 7.7 0.7 0.5
v 7.8 0.7 0.5
v 6.9 0.7 0.4
v 7 0.7 0.4
v 7.1 0.7 0.4
v 7.2 0.7 0.4
v 7.5 0.7 0.4
v 7.6 0.7 0.4
v 7.7 0.7 0.4
v 7.8 0.7 0.4
v 7 0.7 0.3
v 7.1 0.7 0.3
v 7.2 0.7 0.3
v 7.5 0.7 0.3
v 7.6 0.7 0.3
v 7.7 0.7 0.3
v 7.1 0.7 0.2
v 7.2 0.7 0.2
v 7.5 0.7 0.2
v 7.6 0.7 0.2
v 7.1 0.9 0.9
v 7.2 0.9 0.9
v 7.3 0.9 0.9
v 7.4 0.9 0.9
v 7.5 0.9 0.9
v 7.6 0.9 0.9
v 7 0.9 0.8
v 7.1 0.9 0.8
v 7.2 0.9 0.8
v 7.3 0.9 0.8
v 7.4 0.9 0.8
v 7.5 0.9 0.8
v 7.6 0.9 0.8
v 7.7 0.9 0.8
v 6.9 0.9 0.7
v 7 0.9 0.7
v 7.1 0.9 0.7
v 7.6 0.9 0.7
v 7.7 0.9 0.7
v 7.8 0.9 0.7
v 6.9 0.9 0.5
v 7 0.9 0.5
v 7.1 0.9 0.5
v 7.6 0.9 0.5
v 7.7 0.9 0.5
v 7.8 0.9 0.5
v 7 0.9 0.4
v 7.1 0.9 0.4
v 7.2 0.9 0.4
v 7.5 0.9 0.4
v 7.6 0.9 0.4
v 7.7 0.9 0.4
v 7.1 0.9 0.3
v 7.2 0.9 0.3
v 7.5 0.9 0.3
v 7.6 0.9 0.3
v 7.2 0.9 0.2
v 7.5 0.9 0.2
v 6.8 1.1 0.5
v 6.9 1.1 0.5
v 7.8 1.1 0.5
v 7.9 1.1 0.5
v 6.8 1.1 0.4
v 6.9 1.1 0.4
v 7.8 1.1 0.4
v 7.9 1.1 0.4
v 7 1.2 0.9
v 7.2 1.2 0.9
v 7.5 1.2 0.9
v 7.7 1.2 0.9
v 6.9 1.2 0.8
v 7 1.2 0.8
v 7.2 1.2 0.8
v 7.5 1.2 0.8
v 7.7 1.2 0.8
v 7.8 1.2 0.8
v 6.8 1.2 0.7
v 6.9 1.2 0.7
v 7.8 1.2 0.7
v 7.9 1.2 0.7
v 6.8 1.2 0.5
v 6.9 1.2 0.5
v 7.8 1.2 0.5
v 7.9 1.2 0.5
v 6.9 1.2 0.4
v 7 1.2 0.4
v 7.7 1.2 0.4
v 7.8 1.2 0.4
v 7 1.2 0.3
v 7.1 1.2 0.3
v 7.6 1.2 0.3
v 7.7 1.2 0.3
v 7.1 1.2 0.2
v 7.6 1.2 0.2

# faces
f 4/8/1 2/8/1 1/8/1
f 5/8/1 2/8/1 4/8/1
f 6/8/1 4/8/1 3/8/1
f 7/8/1 4/8/1 6/8/1
f 10/7/1 9/7/1 8/7/1
f 11/7/1 9/7/1 10/7/1
f 12/8/1 11/8/1 10/8/1
f 13/8/1 11/8/1 12/8/1
f 14/8/1 11/8/1 13/8/1
f 15/8/1 11/8/1 14/8/1
f 16/3/1 14/3/1 13/3/1
f 17/3/1 14/3/1 16/3/1
f 18/2/1 17/2/1 16/2/1
f 19/2/1 17/2/1 18/2/1
f 22/7/1 21/7/1 20/7/1
f 23/7/1 21/7/1 22/7/1
f 25/7/1 22/7/1 20/7/1
f 26/7/1 22/7/1 25/7/1
f 27/7/1 24/7/1 23/7/1
f 28/7/1 24/7/1 27/7/1
f 33/7/1 30/7/1 29/7/1
f 34/7/1 30/7/1 33/7/1
f 35/7/1 32/7/1 31/7/1
f 36/7/1 32/7/1 35/7/1
f 37/8/1 34/8/1 33/8/1
f 38/8/1 34/8/1 37/8/1
f 41/8/1 36/8/1 35/8/1
f 42/8/1 36/8/1 41/8/1
f 43/3/1 39/3/1 38/3/1
f 44/3/1 39/3/1 43/3/1
f 45/3/1 41/3/1 40/3/1
f 46/3/1 41/3/1 45/3/1
f 47/2/1 44/2/1 43/2/1
f 48/2/1 44/2/1 47/2/1
f 49/2/1 46/2/1 45/2/1
f 50/2/1 46/2/1 49/2/1
f 53/8/1 49/8/1 48/8/1
f 54/8/1 49/8/1 53/8/1
f 57/7/1 52/7/1 51/7/1
f 58/7/1 52/7/1 57/7/1
f 59/7/1 56/7/1 55/7/1
f 60/7/1 56/7/1 59/7/1
f 63/7/1 62/7/1 61/7/1
f 64/7/1 62/7/1 63/7/1
f 68/8/1 64/8/1 63/8/1
f 69/8/1 64/8/1 68/8/1
f 70/3/1 66/3/1 65/3/1
f 71/3/1 66/3/1 70/3/1
f 72/3/1 68/3/1 67/3/1
f 73/3/1 68/3/1 72/3/1
f 74/2/1 71/2/1 70/2/1
f 75/2/1 71/2/1 74/2/1
f 78/2/1 73/2/1 72/2/1
f 79/2/1 73/2/1 78/2/1
f 80/8/1 76/8/1 75/8/1
f 81/8/1 76/8/1 80/8/1
f 82/8/1 78/8/1 77/8/1
f 83/8/1 78/8/1 82/8/1
f 86/7/1 85/7/1 84/7/1
f 87/7/1 85/7/1 86/7/1
f 90/3/1 89/3/1 88/3/1
f 91/3/1 89/3/1 90/3/1
f 93/2/1 91/2/1 90/2/1
f 94/2/1 91/2/1 93/2/1
f 95/8/1 93/8/1 92/8/1
f 96/8/1 93/8/1 95/8/1
f 99/3/1 98/3/1 97/3/1
f 100/3/1 98/3/1 99/3/1
f 101/2/1 100/2/1 99/2/1
f 102/2/1 100/2/1 101/2/1
f 107/3/1 104/3/1 103/3/1
f 108/3/1 104/3/1 107/3/1
f 109/3/1 106/3/1 105/3/1
f 110/3/1 106/3/1 109/3/1
f 111/2/1 108/2/1 107/2/1
f 112/2/1 108/2/1 111/2/1
f 113/2/1 110/2/1 109/2/1
f 114/2/1 110/2/1 113/2/1
f 117/3/1 116/3/1 115/3/1
f 118/3/1 116/3/1 117/3/1
f 119/2/1 118/2/1 117/2/1
f 120/2/1 118/2/1 119/2/1
f 121/3/2 122/3/2 123/3/2
f 123/3/2 122/3/2 124/3/2
f 123/2/2 124/2/2 125/2/2
f 125/2/2 124/2/2 126/2/2
f 127/3/2 128/3/2 131/3/2
f 131/3/2 128/3/2 132/3/2
f 129/3/2 130/3/2 133/3/2
f 133/3/2 130/3/2 134/3/2
f 131/2/2 132/2/2 135/2/2
f 135/2/2 132/2/2 136/2/2
f 133/2/2 134/2/2 137/2/2
f 137/2/2 134/2/2 138/2/2
f 139/3/2 140/3/2 141/3/2
f 141/3/2 140/3/2 142/3/2
f 141/2/2 142/2/2 143/2/2
f 143/2/2 142/2/2 144/2/2
f 145/3/2 146/3/2 147/3/2
f 147/3/2 146/3/2 148/3/2
f 147/2/2 148/2/2 150/2/2
f 150/2/2 148/2/2 151/2/2
f 149/8/2 150/8/2 152/8/2
f 152/8/2 150/8/2 153/8/2
f 154/7/2 155/7/2 156/7/2
f 156/7/2 155/7/2 157/7/2
f 156/8/2 157/8/2 161/8/2
f 161/8/2 157/8/2 162/8/2
f 158/3/2 159/3/2 163/3/2
f 163/3/2 159/3/2 164/3/2
f 160/3/2 161/3/2 165/3/2
f 165/3/2 161/3/2 166/3/2
f 163/2/2 164/2/2 167/2/2
f 167/2/2 164/2/2 168/2/2
f 165/2/2 166/2/2 171/2/2
f 171/2/2 166/2/2 172/2/2
f 168/8/2 169/8/2 173/8/2
f 173/8/2 169/8/2 174/8/2
f 170/8/2 171/8/2 175/8/2
f 175/8/2 171/8/2 176/8/2
f 177/7/2 178/7/2 179/7/2
f 179/7/2 178/7/2 180/7/2
f 181/7/2 182/7/2 185/7/2
f 185/7/2 182/7/2 186/7/2
f 183/7/2 184/7/2 187/7/2
f 187/7/2 184/7/2 188/7/2
f 185/8/2 186/8/2 189/8/2
f 189/8/2 186/8/2 190/8/2
f 187/8/2 188/8/2 193/8/2
f 193/8/2 188/8/2 194/8/2
f 190/3/2 191/3/2 195/3/2
f 195/3/2 191/3/2 196/3/2
f 192/3/2 193/3/2 197/3/2
f 197/3/2 193/3/2 198/3/2
f 195/2/2 196/2/2 199/2/2
f 199/2/2 196/2/2 200/2/2
f 197/2/2 198/2/2 201/2/2
f 201/2/2 198/2/2 202/2/2
f 200/8/2 201/8/2 205/8/2
f 205/8/2 201/8/2 206/8/2
f 203/7/2 204/7/2 209/7/2
f 209/7/2 204/7/2 210/7/2
f 207/7/2 208/7/2 211/7/2
f 211/7/2 208/7/2 212/7/2
f 213/7/2 214/7/2 215/7/2
f 215/7/2 214/7/2 216/7/2
f 215/8/2 216/8/2 217/8/2
f 217/8/2 216/8/2 218/8/2
f 218/8/2 216/8/2 219/8/2
f 219/8/2 216/8/2 220/8/2
f 218/3/2 219/3/2 221/3/2
f 221/3/2 219/3/2 222/3/2
f 221/2/2 222/2/2 223/2/2
f 223/2/2 222/2/2 224/2/2
f 225/7/2 226/7/2 227/7/2
f 227/7/2 226/7/2 228/7/2
f 225/7/2 227/7/2 231/7/2
f 231/7/2 227/7/2 232/7/2
f 229/7/2 230/7/2 233/7/2
f 233/7/2 230/7/2 234/7/2
f 235/8/2 236/8/2 238/8/2
f 238/8/2 236/8/2 239/8/2
f 239/8/2 236/8/2 240/8/2
f 237/8/2 238/8/2 241/8/2
f 238/8/2 239/8/2 241/8/2
f 241/8/2 239/8/2 242/8/2
f 248/8/3 245/8/3 244/8/3
f 251/8/3 248/8/3 244/8/3
f 251/3/3 249/3/3 248/3/3
f 252/2/3 250/2/3 249/2/3
f 252/3/3 249/3/3 251/3/3
f 253/2/3 250/2/3 252/2/3
f 254/7/3 247/7/3 246/7/3
f 255/7/3 247/7/3 254/7/3
f 256/4/3 253/4/3 252/4/3
f 256/8/3 251/8/3 244/8/3
f 256/4/3 252/4/3 251/4/3
f 257/4/3 253/4/3 256/4/3
f 258/7/3 254/7/3 246/7/3
f 259/1/3 255/1/3 254/1/3
f 259/7/3 254/7/3 258/7/3
f 260/5/3 257/5/3 256/5/3
f 261/5/3 257/5/3 260/5/3
f 262/1/3 259/1/3 258/1/3
f 263/1/3 255/1/3 259/1/3
f 263/1/3 259/1/3 262/1/3
f 264/8/3 256/8/3 244/8/3
f 264/5/3 260/5/3 256/5/3
f 265/6/3 261/6/3 260/6/3
f 265/5/3 260/5/3 264/5/3
f 266/6/3 261/6/3 265/6/3
f 267/1/3 255/1/3 263/1/3
f 267/7/3 263/7/3 262/7/3
f 268/1/3 255/1/3 267/1/3
f 269/8/3 264/8/3 244/8/3
f 269/3/3 265/3/3 264/3/3
f 270/2/3 266/2/3 265/2/3
f 270/3/3 265/3/3 269/3/3
f 271/2/3 266/2/3 270/2/3
f 272/7/3 244/7/3 243/7/3
f 273/8/3 269/8/3 244/8/3
f 273/7/3 244/7/3 272/7/3
f 274/8/3 269/8/3 273/8/3
f 275/7/3 268/7/3 267/7/3
f 275/7/3 267/7/3 262/7/3
f 276/7/3 268/7/3 275/7/3
f 282/7/3 278/7/3 277/7/3
f 283/8/3 279/8/3 278/8/3
f 283/7/3 278/7/3 282/7/3
f 284/8/3 279/8/3 283/8/3
f 287/7/3 281/7/3 280/7/3
f 288/7/3 281/7/3 287/7/3
f 289/3/3 285/3/3 284/3/3
f 290/2/3 286/2/3 285/2/3
f 290/3/3 285/3/3 289/3/3
f 291/2/3 286/2/3 290/2/3
f 293/8/3 292/8/3 291/8/3
f 294/8/3 292/8/3 293/8/3
f 295/8/3 292/8/3 294/8/3
f 296/8/3 295/8/3 294/8/3
f 297/8/3 295/8/3 296/8/3
f 298/8/3 297/8/3 296/8/3
f 301/8/3 297/8/3 298/8/3
f 302/8/3 297/8/3 301/8/3
f 305/3/3 300/3/3 299/3/3
f 306/2/3 301/2/3 300/2/3
f 306/3/3 300/3/3 305/3/3
f 307/2/3 301/2/3 306/2/3
f 310/7/3 304/7/3 303/7/3
f 311/8/3 305/8/3 304/8/3
f 311/7/3 304/7/3 310/7/3
f 312/8/3 305/8/3 311/8/3
f 313/7/3 309/7/3 308/7/3
f 314/7/3 309/7/3 313/7/3
f 320/8/3 316/8/3 315/8/3
f 321/8/3 316/8/3 320/8/3
f 322/3/3 318/3/3 317/3/3
f 323/2/3 319/2/3 318/2/3
f 323/3/3 318/3/3 322/3/3
f 324/2/3 319/2/3 323/2/3
f 326/8/3 325/8/3 324/8/3
f 327/8/3 325/8/3 326/8/3
f 332/8/3 329/8/3 328/8/3
f 333/8/3 329/8/3 332/8/3
f 334/3/3 331/3/3 330/3/3
f 335/2/3 332/2/3 331/2/3
f 335/3/3 331/3/3 334/3/3
f 336/2/3 332/2/3 335/2/3
f 339/8/3 338/8/3 337/8/3
f 340/8/3 338/8/3 339/8/3
f 343/8/3 342/8/3 341/8/3
f 344/8/3 342/8/3 343/8/3
f 347/8/3 346/8/3 345/8/3
f 348/8/3 346/8/3 347/8/3
f 352/3/3 350/3/3 349/3/3
f 353/2/3 351/2/3 350/2/3
f 353/3/3 350/3/3 352/3/3
f 354/2/3 351/2/3 353/2/3
f 358/3/3 356/3/3 355/3/3
f 359/2/3 357/2/3 356/2/3
f 359/3/3 356/3/3 358/3/3
f 360/2/3 357/2/3 359/2/3
f 364/3/3 362/3/3 361/3/3
f 365/2/3 363/2/3 362/2/3
f 365/3/3 362/3/3 364/3/3
f 366/2/3 363/2/3 365/2/3
f 370/3/3 368/3/3 367/3/3
f 371/2/3 369/2/3 368/2/3
f 371/3/3 368/3/3 370/3/3
f 372/2/3 369/2/3 371/2/3
f 376/3/3 374/3/3 373/3/3
f 377/2/3 375/2/3 374/2/3
f 377/3/3 374/3/3 376/3/3
f 378/2/3 375/2/3 377/2/3
f 379/3/4 380/3/4 382/3/4
f 380/2/4 381/2/4 383/2/4
f 382/3/4 380/3/4 383/3/4
f 383/2/4 381/2/4 384/2/4
f 382/4/4 383/4/4 385/4/4
f 383/4/4 384/4/4 385/4/4
f 385/4/4 384/4/4 386/4/4
f 385/5/4 386/5/4 387/5/4
f 387/5/4 386/5/4 388/5/4
f 385/5/4 387/5/4 389/5/4
f 387/6/4 388/6/4 390/6/4
f 389/5/4 387/5/4 390/5/4
f 390/6/4 388/6/4 391/6/4
f 389/3/4 390/3/4 392/3/4
f 390/2/4 391/2/4 393/2/4
f 392/3/4 390/3/4 393/3/4
f 393/2/4 391/2/4 394/2/4
f 395/3/4 396/3/4 398/3/4
f 396/2/4 397/2/4 399/2/4
f 398/3/4 396/3/4 399/3/4
f 399/2/4 397/2/4 400/2/4
f 401/3/4 402/3/4 404/3/4
f 402/2/4 403/2/4 405/2/4
f 404/3/4 402/3/4 405/3/4
f 405/2/4 403/2/4 406/2/4
f 407/8/4 408/8/4 412/8/4
f 412/8/4 408/8/4 413/8/4
f 409/3/4 410/3/4 414/3/4
f 410/2/4 411/2/4 415/2/4
f 414/3/4 410/3/4 415/3/4
f 415/2/4 411/2/4 416/2/4
f 416/8/4 417/8/4 418/8/4
f 418/8/4 417/8/4 419/8/4
f 420/8/4 421/8/4 424/8/4
f 424/8/4 421/8/4 425/8/4
f 422/3/4 423/3/4 426/3/4
f 423/2/4 424/2/4 427/2/4
f 426/3/4 423/3/4 427/3/4
f 427/2/4 424/2/4 428/2/4
f 429/8/4 430/8/4 431/8/4
f 431/8/4 430/8/4 432/8/4
f 433/8/4 434/8/4 438/8/4
f 438/8/4 434/8/4 439/8/4
f 435/7/4 436/7/4 441/7/4
f 436/8/4 437/8/4 442/8/4
f 441/7/4 436/7/4 442/7/4
f 442/8/4 437/8/4 443/8/4
f 439/7/4 440/7/4 446/7/4
f 438/7/4 439/7/4 446/7/4
f 446/7/4 440/7/4 447/7/4
f 443/3/4 444/3/4 448/3/4
f 444/2/4 445/2/4 449/2/4
f 448/3/4 444/3/4 449/3/4
f 449/2/4 445/2/4 450/2/4
f 450/8/4 451/8/4 452/8/4
f 452/8/4 451/8/4 453/8/4
f 454/8/4 455/8/4 458/8/4
f 458/8/4 455/8/4 459/8/4
f 456/3/4 457/3/4 462/3/4
f 457/2/4 458/2/4 463/2/4
f 462/3/4 457/3/4 463/3/4
f 463/2/4 458/2/4 464/2/4
f 460/7/4 461/7/4 467/7/4
f 461/8/4 462/8/4 468/8/4
f 467/7/4 461/7/4 468/7/4
f 468/8/4 462/8/4 469/8/4
f 465/7/4 466/7/4 470/7/4
f 470/7/4 466/7/4 471/7/4
f 471/7/4 466/7/4 472/7/4
f 470/8/4 471/8/4 473/8/4
f 473/8/4 471/8/4 474/8/4
f 475/7/4 476/7/4 480/7/4
f 476/8/4 477/8/4 481/8/4
f 480/7/4 476/7/4 481/7/4
f 481/8/4 477/8/4 482/8/4
f 478/7/4 479/7/4 485/7/4
f 485/7/4 479/7/4 486/7/4
f 482/3/4 483/3/4 487/3/4
f 483/2/4 484/2/4 488/2/4
f 487/3/4 483/3/4 488/3/4
f 488/2/4 484/2/4 489/2/4
f 489/8/4 490/8/4 493/8/4
f 493/8/4 490/8/4 494/8/4
f 491/3/4 492/3/4 497/3/4
f 492/2/4 493/2/4 498/2/4
f 497/3/4 492/3/4 498/3/4
f 498/2/4 493/2/4 499/2/4
f 495/7/4 496/7/4 502/7/4
f 496/8/4 497/8/4 503/8/4
f 502/7/4 496/7/4 503/7/4
f 503/8/4 497/8/4 504/8/4
f 500/7/4 501/7/4 505/7/4
f 505/7/4 501/7/4 506/7/4
f 508/8/4 509/8/4 512/8/4
f 508/8/4 512/8/4 515/8/4
f 512/3/4 513/3/4 515/3/4
f 513/2/4 514/2/4 516/2/4
f 515/3/4 513/3/4 516/3/4
f 516/2/4 514/2/4 517/2/4
f 507/7/4 508/7/4 518/7/4
f 508/8/4 515/8/4 519/8/4
f 518/7/4 508/7/4 519/7/4
f 519/8/4 515/8/4 520/8/4
f 510/7/4 511/7/4 521/7/4
f 521/7/4 511/7/4 522/7/4
f 526/7/5 524/7/5 523/7/5
f 527/7/5 524/7/5 526/7/5
f 529/7/5 526/7/5 525/7/5
f 529/7/5 528/7/5 527/7/5
f 529/7/5 527/7/5 526/7/5
f 530/7/5 528/7/5 529/7/5
f 531/7/5 528/7/5 530/7/5
f 532/7/5 528/7/5 531/7/5
f 533/7/5 531/7/5 530/7/5
f 534/7/5 531/7/5 533/7/5
f 535/7/5 531/7/5 534/7/5
f 536/7/5 531/7/5 535/7/5
f 537/7/5 535/7/5 534/7/5
f 538/7/5 535/7/5 537/7/5
f 546/8/5 540/8/5 539/8/5
f 546/8/5 544/8/5 543/8/5
f 546/8/5 543/8/5 542/8/5
f 546/8/5 542/8/5 541/8/5
f 546/8/5 541/8/5 540/8/5
f 547/8/5 544/8/5 546/8/5
f 549/8/5 546/8/5 545/8/5
f 549/8/5 548/8/5 547/8/5
f 549/8/5 547/8/5 546/8/5
f 550/8/5 548/8/5 549/8/5
f 551/8/5 548/8/5 550/8/5
f 552/8/5 548/8/5 551/8/5
f 553/8/5 551/8/5 550/8/5
f 554/8/5 551/8/5 553/8/5
f 555/8/5 551/8/5 554/8/5
f 556/8/5 551/8/5 555/8/5
f 557/8/5 555/8/5 554/8/5
f 558/8/5 555/8/5 557/8/5
f 564/7/5 560/7/5 559/7/5
f 565/7/5 560/7/5 564/7/5
f 566/1/5 561/1/5 560/1/5
f 566/7/5 560/7/5 565/7/5
f 567/7/5 562/7/5 561/7/5
f 567/1/5 561/1/5 566/1/5
f 568/7/5 562/7/5 567/7/5
f 569/7/5 562/7/5 568/7/5
f 571/7/5 565/7/5 564/7/5
f 571/7/5 564/7/5 563/7/5
f 572/7/5 565/7/5 571/7/5
f 573/7/5 570/7/5 569/7/5
f 573/7/5 569/7/5 568/7/5
f 574/7/5 570/7/5 573/7/5
f 575/7/5 570/7/5 574/7/5
f 578/7/5 571/7/5 563/7/5
f 579/7/5 571/7/5 578/7/5
f 582/7/5 575/7/5 574/7/5
f 583/8/5 578/8/5 577/8/5
f 584/7/5 580/7/5 579/7/5
f 584/8/5 578/8/5 583/8/5
f 584/7/5 579/7/5 578/7/5
f 585/7/5 580/7/5 584/7/5
f 586/7/5 580/7/5 585/7/5
f 589/7/5 582/7/5 581/7/5
f 590/7/5 575/7/5 582/7/5
f 590/7/5 582/7/5 589/7/5
f 591/8/5 576/8/5 575/8/5
f 591/7/5 575/7/5 590/7/5
f 592/8/5 576/8/5 591/8/5
f 593/7/5 587/7/5 586/7/5
f 593/7/5 586/7/5 585/7/5
f 594/7/5 587/7/5 593/7/5
f 595/7/5 587/7/5 594/7/5
f 596/7/5 590/7/5 589/7/5
f 596/7/5 589/7/5 588/7/5
f 597/7/5 590/7/5 596/7/5
f 598/7/5 590/7/5 597/7/5
f 599/7/5 595/7/5 594/7/5
f 599/7/5 597/7/5 596/7/5
f 599/7/5 596/7/5 595/7/5
f 600/7/5 597/7/5 599/7/5
f 605/8/5 604/8/5 603/8/5
f 606/8/5 604/8/5 605/8/5
f 607/8/5 602/8/5 601/8/5
f 608/8/5 602/8/5 607/8/5
f 609/8/6 610/8/6 614/8/6
f 614/8/6 610/8/6 615/8/6
f 611/8/6 612/8/6 619/8/6
f 619/8/6 612/8/6 620/8/6
f 613/8/6 614/8/6 622/8/6
f 622/8/6 614/8/6 623/8/6
f 617/8/6 618/8/6 624/8/6
f 618/8/6 619/8/6 624/8/6
f 615/8/6 616/8/6 624/8/6
f 616/8/6 617/8/6 624/8/6
f 624/8/6 619/8/6 625/8/6
f 620/8/6 621/8/6 626/8/6
f 626/8/6 621/8/6 627/8/6
f 624/8/6 625/8/6 629/8/6
f 625/8/6 626/8/6 629/8/6
f 623/8/6 624/8/6 629/8/6
f 629/8/6 626/8/6 630/8/6
f 630/8/6 626/8/6 631/8/6
f 631/8/6 626/8/6 632/8/6
f 628/8/6 629/8/6 634/8/6
f 634/8/6 629/8/6 635/8/6
f 630/8/6 631/8/6 636/8/6
f 636/8/6 631/8/6 637/8/6
f 637/8/6 631/8/6 638/8/6
f 638/8/6 631/8/6 639/8/6
f 632/8/6 633/8/6 640/8/6
f 640/8/6 633/8/6 641/8/6
f 635/8/6 636/8/6 642/8/6
f 642/8/6 636/8/6 643/8/6
f 637/8/6 638/8/6 644/8/6
f 644/8/6 638/8/6 645/8/6
f 639/8/6 640/8/6 646/8/6
f 646/8/6 640/8/6 647/8/6
f 643/8/6 644/8/6 648/8/6
f 648/8/6 644/8/6 649/8/6
f 645/8/6 646/8/6 650/8/6
f 650/8/6 646/8/6 651/8/6
f 652/2/6 653/2/6 659/2/6
f 653/4/6 654/4/6 660/4/6
f 659/2/6 653/2/6 660/2/6
f 654/5/6 655/5/6 661/5/6
f 660/4/6 654/4/6 661/4/6
f 655/6/6 656/6/6 662/6/6
f 661/5/6 655/5/6 662/5/6
f 656/2/6 657/2/6 663/2/6
f 662/6/6 656/6/6 663/6/6
f 663/2/6 657/2/6 664/2/6
f 658/2/6 659/2/6 667/2/6
f 667/2/6 659/2/6 668/2/6
f 664/2/6 665/2/6 669/2/6
f 669/2/6 665/2/6 670/2/6
f 666/2/6 667/2/6 672/2/6
f 672/2/6 667/2/6 673/2/6
f 670/2/6 671/2/6 676/2/6
f 676/2/6 671/2/6 677/2/6
f 673/2/6 674/2/6 678/2/6
f 678/2/6 674/2/6 679/2/6
f 675/2/6 676/2/6 682/2/6
f 682/2/6 676/2/6 683/2/6
f 679/2/6 680/2/6 684/2/6
f 684/2/6 680/2/6 685/2/6
f 681/2/6 682/2/6 686/2/6
f 686/2/6 682/2/6 687/2/6
f 685/2/6 686/2/6 688/2/6
f 688/2/6 686/2/6 689/2/6
f 690/8/6 691/8/6 694/8/6
f 694/8/6 691/8/6 695/8/6
f 692/8/6 693/8/6 696/8/6
f 696/8/6 693/8/6 697/8/6
f 698/7/6 699/7/6 703/7/6
f 699/1/6 700/1/6 704/1/6
f 703/7/6 699/7/6 704/7/6
f 700/7/6 701/7/6 705/7/6
f 704/1/6 700/1/6 705/1/6
f 705/7/6 701/7/6 706/7/6
f 703/7/6 704/7/6 709/7/6
f 706/7/6 707/7/6 709/7/6
f 705/7/6 706/7/6 709/7/6
f 704/7/6 705/7/6 709/7/6
f 702/7/6 703/7/6 709/7/6
f 709/7/6 707/7/6 710/7/6
f 708/8/6 709/8/6 712/8/6
f 709/7/6 710/7/6 713/7/6
f 712/8/6 709/8/6 713/8/6
f 710/8/6 711/8/6 714/8/6
f 713/7/6 710/7/6 714/7/6
f 714/8/6 711/8/6 715/8/6
f 713/7/6 714/7/6 716/7/6
f 716/7/6 714/7/6 717/7/6
f 717/7/6 714/7/6 718/7/6
f 718/7/6 714/7/6 719/7/6
f 717/7/6 718/7/6 720/7/6
f 720/7/6 718/7/6 721/7/6
f 721/7/6 718/7/6 722/7/6
f 722/7/6 718/7/6 723/7/6
f 721/7/6 722/7/6 724/7/6
f 724/7/6 722/7/6 725/7/6
